<svg xmlns="http://www.w3.org/2000/svg" version="1.1" xmlns:xlink="http://www.w3.org/1999/xlink" xmlns:svgjs="http://svgjs.dev/svgjs" width="1000" height="623" viewBox="0 0 1000 623"><g transform="matrix(1,0,0,1,-0.6060489148467241,0.2522267206477409)"><svg viewBox="0 0 396 247" data-background-color="#ffffff" preserveAspectRatio="xMidYMid meet" height="623" width="1000" xmlns="http://www.w3.org/2000/svg" xmlns:xlink="http://www.w3.org/1999/xlink"><defs></defs><g id="tight-bounds" transform="matrix(1,0,0,1,0.23999537027930273,-0.09999999999999432)"><svg viewBox="0 0 395.52 247.2" height="247.2" width="395.52"><g><svg></svg></g><g><svg viewBox="0 0 395.52 247.2" height="247.2" width="395.52"><g><path d="M272.191 57.646c0 8.59-1.808 16.774-5.425 24.551-0.232 0.503-0.471 1-0.715 1.492l-36.227 0c3.83-6.171 5.745-14.287 5.745-24.347 0-8.59-1.854-15.327-5.561-20.21-3.753-4.838-8.726-8.342-14.92-10.512-6.239-2.125-13.089-3.187-20.549-3.188h-42.726l0 58.257-34.927 0v-61.648c0-0.226-0.384-1.989-1.153-5.29-0.814-3.255-1.56-6.691-2.238-10.308-0.678-3.617-1.13-5.765-1.356-6.443h83.756c9.721 0 19.102 0.836 28.145 2.509 9.043 1.718 17.181 4.725 24.415 9.02 7.234 4.295 12.999 10.105 17.293 17.43 4.295 7.37 6.443 16.932 6.443 28.687zM283.381 178.025c0 14.242-2.713 25.929-8.138 35.062-5.426 9.178-12.66 16.254-21.702 21.227-9.043 4.973-19.261 8.364-30.654 10.173-11.439 1.808-23.036 2.713-34.791 2.713h-71.21l0-83.689h34.927v58.257h37.3c11.303 0 21.25-1.469 29.84-4.408 8.59-2.939 15.327-7.98 20.21-15.124 4.838-7.098 7.257-16.864 7.257-29.298 0-3.34-0.251-6.482-0.752-9.427h36.365c0.899 4.636 1.349 9.474 1.348 14.514z" fill="#0080ff" data-fill-palette-color="tertiary"></path></g><g transform="matrix(1,0,0,1,0,96.48950307619498)"><svg viewBox="0 0 395.52 54.220993847610025" height="54.220993847610025" width="395.52"><g><svg viewBox="0 0 395.52 54.220993847610025" height="54.220993847610025" width="395.52"><g><svg viewBox="0 0 395.52 54.220993847610025" height="54.220993847610025" width="395.52"><g><svg viewBox="0 0 395.52 54.220993847610025" height="54.220993847610025" width="395.52"><g><svg viewBox="0 0 395.52 54.220993847610025" height="54.220993847610025" width="395.52"><g transform="matrix(1,0,0,1,0,0)"><svg width="395.52" viewBox="3.3499999046325684 -36.95000076293945 316.92999267578125 43.45000076293945" height="54.220993847610025" data-palette-color="#0080ff"><path d="M26.95-27.95L26.95-27.95Q26.95-26.05 26.15-24.33 25.35-22.6 23.93-21.4 22.5-20.2 20.5-19.85L20.5-19.85Q23-19.5 24.8-18.15 26.6-16.8 27.6-14.75 28.6-12.7 28.6-10.2L28.6-10.2Q28.6-7.05 27.4-5.03 26.2-3 24.2-1.9 22.2-0.8 19.68-0.4 17.15 0 14.55 0L14.55 0 4.05 0 4.05-33.2Q4.05-33.25 3.88-33.98 3.7-34.7 3.55-35.5 3.4-36.3 3.35-36.45L3.35-36.45 15.7-36.45Q17.85-36.45 19.85-36.08 21.85-35.7 23.45-34.75 25.05-33.8 26-32.18 26.95-30.55 26.95-27.95ZM21.55-27.7L21.55-27.7Q21.55-29.6 20.73-30.68 19.9-31.75 18.53-32.23 17.15-32.7 15.5-32.7L15.5-32.7 9.2-32.7 9.2-21.55 14.5-21.55Q17.7-21.55 19.63-22.95 21.55-24.35 21.55-27.7ZM23.15-10.95L23.15-10.95Q23.15-13.45 21.88-14.95 20.6-16.45 18.57-17.13 16.55-17.8 14.4-17.8L14.4-17.8 9.2-17.8 9.2-3.75 14.7-3.75Q17.2-3.75 19.1-4.4 21-5.05 22.08-6.63 23.15-8.2 23.15-10.95ZM34.2-36.45L41.55-36.45 50.15-13.35Q50.65-12.05 51.05-10.78 51.45-9.5 51.85-7.95L51.85-7.95Q52.25-9.5 52.6-10.73 52.95-11.95 53.45-13.2L53.45-13.2 62-36.45 68.6-36.45 68.6 0 63.55 0 63.55-26.05Q63.55-26.95 63.62-27.8 63.7-28.65 63.75-29.65L63.75-29.65Q63.45-28.85 63.1-28 62.75-27.15 62.45-26.25L62.45-26.25 52.85 0.05 49.85 0.05 40.1-26.45Q39.8-27.25 39.47-28.1 39.15-28.95 38.9-29.65L38.9-29.65Q39-28.75 39.02-27.93 39.05-27.1 39.05-26.25L39.05-26.25 39.05 0 34.9 0 34.9-33.2 34.2-36.45ZM76.7-33.2L76-36.45 81.8-36.45 81.8-20.15 95.8-36.45 100.95-36.45 87.15-20.3 101.9 0 95.65 0 81.8-18.85 81.8 0 76.7 0 76.7-33.2ZM101.34 6.5L101.34 3.1 127.14 3.1 127.14 6.5 101.34 6.5ZM130.79-33.2L130.09-36.45 152.19-36.45 152.19-32.7 135.89-32.7 135.89-20.6 148.49-20.6 148.49-16.85 135.89-16.85 135.89-3.75 152.19-3.75 152.19 0 130.79 0 130.79-33.2ZM157.59-36.45L164.19-36.45 179.79-12.5Q180.24-11.8 180.74-11.03 181.24-10.25 181.74-9.5L181.74-9.5Q181.69-10.35 181.61-11.25 181.54-12.15 181.54-13L181.54-13 181.54-36.45 185.74-36.45 185.74 0.25 182.29 0.25 164.14-27.45Q163.74-28.15 163.24-28.9 162.74-29.65 162.24-30.35L162.24-30.35Q162.34-29.55 162.39-28.7 162.44-27.85 162.44-27.05L162.44-27.05 162.44 0 158.29 0 158.29-33.2 157.59-36.45ZM193.94-33.2L193.24-36.45 215.34-36.45 215.34-32.7 199.04-32.7 199.04-20.6 211.64-20.6 211.64-16.85 199.04-16.85 199.04-3.75 215.34-3.75 215.34 0 193.94 0 193.94-33.2ZM221.33-33.2L220.63-36.45 231.83-36.45Q235.28-36.45 238.08-35.55 240.88-34.65 242.51-32.48 244.13-30.3 244.13-26.4L244.13-26.4Q244.13-24.4 243.16-22.53 242.18-20.65 240.56-19.28 238.93-17.9 237.03-17.3L237.03-17.3 247.43 0 241.53 0 231.98-16.35 226.43-16.35 226.43 0 221.33 0 221.33-33.2ZM231.68-32.65L226.43-32.65 226.43-20.05 230.28-20.05Q232.68-20.05 234.61-20.6 236.53-21.15 237.66-22.6 238.78-24.05 238.78-26.65L238.78-26.65Q238.78-28.7 237.78-30.03 236.78-31.35 235.18-32 233.58-32.65 231.68-32.65L231.68-32.65ZM265.28-36.95L265.28-36.95Q267.23-36.95 269.51-36.52 271.78-36.1 273.91-35.2 276.03-34.3 277.43-32.85L277.43-32.85 274.58-29.55Q273.03-30.8 271.68-31.58 270.33-32.35 268.88-32.75 267.43-33.15 265.28-33.15L265.28-33.15Q262.03-33.15 259.81-31.9 257.58-30.65 256.18-28.55 254.78-26.45 254.13-23.78 253.48-21.1 253.48-18.25L253.48-18.25Q253.48-15.6 254.08-12.95 254.68-10.3 256.01-8.13 257.33-5.95 259.46-4.65 261.58-3.35 264.73-3.35L264.73-3.35Q267.28-3.35 269.18-4.48 271.08-5.6 272.13-7.55 273.18-9.5 273.18-12.05L273.18-12.05 273.18-15.3 264.53-15.3 265.13-18.9 278.38-18.9 278.33-8.7Q278.33-6.55 278.48-4.35 278.63-2.15 278.78 0L278.78 0 276.03 0 274.43-3.8Q272.18-1.45 269.66-0.43 267.13 0.6 263.83 0.6L263.83 0.6Q259.88 0.6 256.93-0.88 253.98-2.35 252.01-4.93 250.03-7.5 249.08-10.8 248.13-14.1 248.13-17.8L248.13-17.8Q248.13-23.25 250.06-27.58 251.98-31.9 255.81-34.43 259.63-36.95 265.28-36.95ZM284.83-36.45L284.83-36.45 290.63-36.45 290.63 0 285.53 0 285.53-33.2Q285.53-33.25 285.35-33.98 285.18-34.7 285.03-35.5 284.88-36.3 284.83-36.45ZM298.88-33.2L298.18-36.45 320.28-36.45 320.28-32.7 303.98-32.7 303.98-20.6 316.58-20.6 316.58-16.85 303.98-16.85 303.98-3.75 320.28-3.75 320.28 0 298.88 0 298.88-33.2Z" opacity="1" transform="matrix(1,0,0,1,0,0)" fill="#0080ff" class="undefined-text-0" data-fill-palette-color="primary" id="text-0"></path></svg></g></svg></g></svg></g></svg></g><g></g></svg></g></svg></g></svg></g></svg><rect width="395.52" height="247.2" fill="none" stroke="none" visibility="hidden"></rect></g></svg></g></svg>