<svg xmlns="http://www.w3.org/2000/svg" version="1.1" xmlns:xlink="http://www.w3.org/1999/xlink" xmlns:svgjs="http://svgjs.com/svgjs" width="512" height="512" x="0" y="0" viewBox="0 0 61 59" style="enable-background:new 0 0 512 512" xml:space="preserve" class="">
    <g>
        <g id="Page-1" fill="none" fill-rule="evenodd">
            <g id="012---Sun-Direction" fill-rule="nonzero">
                <path id="Rectangle-path" d="m43.287 51h8v5h-8z" fill="#285680" data-original="#285680"></path>
                <path id="Shape" d="m42.287 55h10c1.6568542 0 3 1.3431458 3 3 0 .5522847-.4477153 1-1 1h-14c-.5522847 0-1-.4477153-1-1 0-.7956495.3160705-1.5587112.8786797-2.1213203.5626091-.5626092 1.3256708-.8786797 2.1213203-.8786797z" fill="#3b97d3" data-original="#3b97d3"></path>
                <path id="Shape" d="m33.059 49.664 4.286-12c.1420592-.3982148.5192047-.6640584.942-.664h20c.5522847 0 1 .4477153 1 1v12c0 .5522847-.4477153 1-1 1h-24.287c-.3249822-.0002801-.6295607-.1584648-.8166992-.4241576-.1871384-.2656929-.233495-.6057539-.1243008-.9118424z" fill="#3f5c6c" data-original="#3f5c6c"></path>
                <g fill="#f0c419">
                    <path id="Shape" d="m18 4c-.5522847 0-1-.44771525-1-1v-2c0-.55228475.4477153-1 1-1s1 .44771525 1 1v2c0 .55228475-.4477153 1-1 1z" fill="#f0c419" data-original="#f0c419" class=""></path>
                    <path id="Shape" d="m18 36c-.5522847 0-1-.4477153-1-1v-2c0-.5522847.4477153-1 1-1s1 .4477153 1 1v2c0 .5522847-.4477153 1-1 1z" fill="#f0c419" data-original="#f0c419" class=""></path>
                    <path id="Shape" d="m35 19h-2c-.5522847 0-1-.4477153-1-1s.4477153-1 1-1h2c.5522847 0 1 .4477153 1 1s-.4477153 1-1 1z" fill="#f0c419" data-original="#f0c419" class=""></path>
                    <path id="Shape" d="m3 19h-2c-.55228475 0-1-.4477153-1-1s.44771525-1 1-1h2c.55228475 0 1 .4477153 1 1s-.44771525 1-1 1z" fill="#f0c419" data-original="#f0c419" class=""></path>
                    <path id="Shape" d="m3.278 27.5c-.45258806-.0000199-.84874105-.3040116-.96588095-.7411777s.07393969-.8985084.46588095-1.1248223l1.733-1c.30957042-.1814844.69264947-.1831833 1.00381742-.0044519.31116795.1787315.50271357.5104885.50192468.8693336-.00078888.3588451-.19379132.6897567-.5057421.8671183l-1.733 1c-.15187005.0881308-.32441125.1343718-.5.134z" fill="#f0c419" data-original="#f0c419" class=""></path>
                    <path id="Shape" d="m30.991 11.5c-.4525881-.0000199-.8487411-.3040116-.9658809-.7411777-.1171399-.4371661.0739396-.89850836.4658809-1.1248223l1.733-1c.3095704-.18148438.6926495-.18318331 1.0038174-.00445186.311168.17873145.5027136.51048847.5019247.86933356s-.1937913.6897567-.5057421.8671183l-1.733 1c-.1518701.0881308-.3244113.1343718-.5.134z" fill="#f0c419" data-original="#f0c419" class=""></path>
                    <path id="Shape" d="m10.5 6.01c-.3576137.00034843-.68819322-.19029718-.867-.5l-1-1.733c-.27169029-.47785996-.10674157-1.08542045.3693057-1.36027453.47604726-.27485408 1.0846885-.11393908 1.3626943.36027453l1 1.733c.1785415.30924248.1786393.6902222.0002566.99955632-.1783827.30933411-.5081742.50007763-.8652566.50044368z" fill="#f0c419" data-original="#f0c419" class=""></path>
                    <path id="Shape" d="m5.009 11.5c-.17558875.0003718-.34812995-.0458692-.5-.134l-1.733-1c-.31195078-.1773616-.50495322-.50827321-.5057421-.8671183-.00078889-.35884509.19075673-.69060211.50192468-.86933356s.694247-.17703252 1.00381742.00445186l1.733 1c.39194126.22631394.58302085.6876562.46588095 1.1248223s-.51329289.7411578-.96588095.7411777z" fill="#f0c419" data-original="#f0c419" class=""></path>
                    <path id="Shape" d="m25.5 6.01c-.3570824-.00036605-.6868739-.19110957-.8652566-.50044368-.1783827-.30933412-.1782849-.69031384.0002566-.99955632l1-1.733c.2780058-.47421361.886647-.63512861 1.3626943-.36027453s.640996.88241457.3693057 1.36027453l-1 1.733c-.1788068.30970282-.5093863.50034843-.867.5z" fill="#f0c419" data-original="#f0c419" class=""></path>
                    <path id="Shape" d="m9.5 33.723c-.3570824-.000366-.68687394-.1911096-.86525662-.5004437-.17838267-.3093341-.17828486-.6903138.00025662-.9995563l1-1.733c.27800577-.4742136.886647-.6351286 1.3626943-.3602745.4760473.274854.640996.8824145.3693057 1.3602745l-1 1.733c-.1788068.3097028-.50938627.5003484-.867.5z" fill="#f0c419" data-original="#f0c419" class=""></path>
                    <path id="Shape" d="m34.879 33.784c.0300155.298608-.0756675.594909-.2878793.8071207-.2122117.2122118-.5085127.3178948-.8071207.2878793l-3.494-.349-3.19-.32c-.3834448-.0393139-.7101579-.2955101-.8397734-.6585188-.1296155-.3630088-.0390552-.7681961.2327734-1.0414812l.888-.888-4.01-4.01c-4.7934062 2.6771317-10.8268852 1.4098148-14.13806812-2.9696653-3.31118289-4.37948-2.88604846-10.5299452.99620462-14.4121982 3.882253-3.88225308 10.0327182-4.30738751 14.4121982-.99620462 4.3794801 3.31118292 5.646797 9.34466192 2.9696653 14.13806812l4.01 4.01.888-.888c.2732851-.2718286.6784724-.3623889 1.0414812-.2327734.3630087.1296155.6192049.4563286.6585188.8397734l.32 3.191z" fill="#f0c419" data-original="#f0c419" class=""></path>
                </g>
                <path id="Shape" d="m21.433 38.293 3.3 3.2.888-.888c.2732851-.2718286.6784724-.3623889 1.0414812-.2327734.3630087.1296155.6192049.4563286.6585188.8397734l.319 3.191.36 3.497c.0318964.300388-.0737025.5990966-.2873029.8126971-.2136005.2136004-.5123091.3191993-.8126971.2873029l-3.5-.349-3.191-.319c-.3834448-.0393139-.7101579-.2955101-.8397734-.6585188-.1296155-.3630088-.0390552-.7681961.2327734-1.0414812l.888-.888-3.2-3.3c-.3903819-.3904999-.3903819-1.0235001 0-1.414l2.726-2.726c.186182-.1898542.4403129-.2977376.7062154-.2998018.2659024-.0020641.5216776.1018609.7107846.2888018z" fill="#f3d55b" data-original="#f3d55b"></path>
                <path id="Shape" d="m42.433 17.293 3.3 3.2.888-.888c.2732851-.2718286.6784724-.3623889 1.0414812-.2327734.3630087.1296155.6192049.4563286.6585188.8397734l.319 3.191.36 3.497c.0318964.300388-.0737025.5990966-.2873029.8126971-.2136005.2136004-.5123091.3191993-.8126971.2873029l-3.5-.349-3.191-.319c-.3834448-.0393139-.7101579-.2955101-.8397734-.6585188-.1296155-.3630088-.0390552-.7681961.2327734-1.0414812l.888-.888-3.2-3.3c-.3903819-.3904999-.3903819-1.0235001 0-1.414l2.726-2.726c.186182-.1898542.4403129-.2977376.7062154-.2998018.2659024-.0020641.5216776.1018609.7107846.2888018z" fill="#f3d55b" data-original="#f3d55b"></path>
                <path id="Shape" d="m11 19c-.5522847 0-1-.4477153-1-1 .0049599-4.4162219 3.5837781-7.9950401 8-8 .5522847 0 1 .4477153 1 1s-.4477153 1-1 1c-3.3123376.0033074-5.9966926 2.6876624-6 6 0 .5522847-.4477153 1-1 1z" fill="#ffffff" data-original="#ffffff"></path>
                <path id="Shape" d="m59.287 42v-2h-6.212l.209-2.929c.0253659-.3563724-.1413175-.6992067-.4372622-.8993604-.2959446-.2001537-.6761895-.2272188-.9975-.071-.3213105.1562187-.534872.471988-.5602378.8283604l-.219 3.071h-6.4l.6-2.791c.1154275-.5401345-.2288655-1.0715725-.769-1.187s-1.0715725.2288655-1.187.769l-.693 3.209h-5.921v2h5.491l-.643 3h-6.758v2h6.331l-.812 3.791c-.1155263.5398258.228244 1.0711479.768 1.187.0693718.0146835.1400913.0220571.211.022.4713972-.0004317.8784781-.330013.977-.791l.9-4.209h7.4l-.281 3.929c-.0195018.2656976.0678239.5281934.2426055.729258.1747816.2010645.4225686.3240743.6883945.341742h.073c.5257052.0013266.9626765-.4046197 1-.929l.287-4.071h6.712v-2h-6.569l.214-3zm-8.574 3h-7.113l.643-3h6.689z" fill="#bdc3c7" data-original="#bdc3c7"></path>
                <path id="Shape" d="m58.287 52h-24.287c-.6503176.0000898-1.2600758-.3160114-1.6348219-.8474984-.374746-.5314869-.4676848-1.2119922-.2491781-1.8245016l4.286-12c.2842416-.7967753 1.0390426-1.3285397 1.885-1.328h20c1.1045695 0 2 .8954305 2 2v12c0 1.1045695-.8954305 2-2 2zm-24.287-2h24.287v-12h-20z" fill="#3b97d3" data-original="#3b97d3"></path>
            </g>
        </g>
    </g>
</svg>